HIERARCHY
ROOT pelvis
{
  OFFSET 0 100 0
  CHANNELS 6 Xposition Yposition Zposition Zrotation Xrotation Yrotation
  JOINT pelvis_right_femur
  {
    OFFSET -10.78128 -3.44521 -0.5502486
    CHANNELS 3 Zrotation Xrotation Yrotation
    JOINT right_femur_tibia
    {
      OFFSET -0.8047443 -44.0398 -0.1307829
      CHANNELS 3 Zrotation Xrotation Yrotation
      JOINT right_tibia_foot
      {
        OFFSET 3.006224 -47.83518 -5
        CHANNELS 3 Zrotation Xrotation Yrotation
        End Site
        {
          OFFSET 0 -5 15
        }
      }
    }
  }
  JOINT pelvis_left_femur
  {
    OFFSET 10.78128 -3.44521 -0.5502486
    CHANNELS 3 Zrotation Xrotation Yrotation
    JOINT left_femur_tibia
    {
      OFFSET 0.8047443 -44.0398 -0.1307829
      CHANNELS 3 Zrotation Xrotation Yrotation
      JOINT left_tibia_foot
      {
        OFFSET -4.370144 -48.10324 -4.275266
        CHANNELS 3 Zrotation Xrotation Yrotation
        End Site
        {
          OFFSET 0 -5 15
        }
      }
    }
  }
  JOINT pelvis_spine1
  {
    OFFSET 0 6.468898 -3.129235
    CHANNELS 3 Zrotation Xrotation Yrotation
    JOINT spine1
    {
      OFFSET 0 23.15396 4.99043
      CHANNELS 3 Zrotation Xrotation Yrotation
      JOINT spine2
      {
        OFFSET 0 20.79997 -5.064912
        CHANNELS 3 Zrotation Xrotation Yrotation
        JOINT neck
        {
          OFFSET 0 14.38658 9.616178
          CHANNELS 3 Zrotation Xrotation Yrotation
          End Site
          {
            OFFSET 0 20 0
          }
        }
      }
      JOINT right_manubrium
      {
        OFFSET -5.722621 16.35077 3.967754
        CHANNELS 3 Zrotation Xrotation Yrotation
        JOINT right_clavicle
        {
          OFFSET -13.16364 1.694482 -4.693211
          CHANNELS 3 Zrotation Xrotation Yrotation
          JOINT right_humerus
          {
            OFFSET -28.5034 -0.3100689 -2.792744
            CHANNELS 3 Zrotation Xrotation Yrotation
            JOINT right_radius
            {
              OFFSET -25.15693 0.02248979 -1.271978
              CHANNELS 3 Zrotation Xrotation Yrotation
              End Site
              {
                OFFSET -15 0 0
              }
            }
          }
        }
      }
      JOINT left_manubrium
      {
        OFFSET 5.722621 16.35077 3.967754
        CHANNELS 3 Zrotation Xrotation Yrotation
        JOINT left_clavicle
        {
          OFFSET 13.16364 1.694482 -4.693211
          CHANNELS 3 Zrotation Xrotation Yrotation
          JOINT left_humerus
          {
            OFFSET 29.39168 -1.063119 -2.237045
            CHANNELS 3 Zrotation Xrotation Yrotation
            JOINT left_radius
            {
              OFFSET 24.59957 -0.9528479 0.9047498
              CHANNELS 3 Zrotation Xrotation Yrotation
              End Site
              {
                OFFSET 15 -0 -0
              }
            }
          }
        }
      }
    }
  }
}
MOTION
Frames: 11
Frame Time: 0.0416666666667
0 103.5113 0 -0.2433383 -1.8353 0.01749596 1.477119 -11.67089 10.81791 -0 38.34344 -0 -4.452886 -13.78174 -5.961924 -5.211939 8.319654 -20.41504 -0 9.834542 -0 6.690466 -20.77164 24.65886 -1.79272 -6.084266 5.291737 2.205614 12.24669 -7.732611 0.2955248 21.68453 8.497629 4.358847 -25.32532 8.355943 9.306002 -18.06953 15.64637 83.46066 38.19249 -18.67672 -0 0 15.21332 -8.977507 6.048812 4.631112 8.38771 -22.10357 -0.6921731 -97.09215 33.23832 19.77626 0 0 -15.07875 -13.55368 10.79774 13.62443
0.3838621 103.5147 1.375844 -0.2485821 -1.834687 0.01577201 2.467547 -15.80516 10.33045 -0 43.38028 -0 -4.673676 -13.15979 -6.538323 -5.25947 9.493833 -20.09375 -0 9.034441 -0 5.980947 -21.27523 24.16962 -2.088214 -5.433411 4.97573 2.339642 12.23772 -7.950406 0.3261047 21.38761 8.82329 4.823864 -25.42823 8.416861 9.219356 -18.08085 15.16165 83.26788 37.76299 -18.4968 -0 0 15.20095 -9.330882 6.165597 4.884337 8.280221 -22.00943 -0.8053803 -96.38772 33.14338 19.51048 0 0 -15.53971 -13.03868 10.92851 14.02476
0.7269252 103.6041 3.06742 -0.2573437 -1.848747 -0.04123752 3.313251 -19.6485 9.458386 -0 45.53941 -0 -4.847145 -12.51018 -6.651887 -5.35546 11.03977 -19.59819 -0 8.238182 -0 5.145506 -21.73502 23.63107 -2.424491 -4.641592 4.798064 2.527213 12.13167 -8.102334 0.2705776 21.08734 9.163439 5.264894 -25.31294 8.353015 9.101367 -17.95972 14.69975 83.33837 37.36003 -18.58294 -0 0 14.94459 -9.584143 6.32299 5.065959 8.320408 -22.06475 -0.8690145 -95.63052 33.07895 19.02041 0 0 -16.1403 -12.49889 11.09772 14.37488
1.044707 103.5827 4.955674 -0.2761145 -1.910009 -0.2713939 3.833142 -22.97204 8.299833 -0 44.3233 -0 -4.906469 -11.54111 -6.275166 -5.433403 12.68121 -19.00286 -0 7.486311 -0 4.241864 -22.2422 22.98685 -2.75328 -3.687445 4.694556 2.701517 11.88893 -8.21302 0.1112322 20.59645 9.499148 5.635969 -25.02676 8.128517 9.009765 -17.78093 14.38798 83.61842 36.9986 -18.80022 -0 0 14.48649 -9.718193 6.516328 5.189814 8.379514 -22.15967 -1.049286 -95.01218 33.06037 18.46965 0 0 -16.79015 -12.00783 11.31881 14.70916
1.343684 103.3881 7.041471 -0.2836886 -1.915739 -0.301774 4.142671 -26.22296 7.441501 -0 40.58482 -0 -4.880452 -10.14341 -5.42464 -5.526912 14.26979 -18.41091 -0 6.966261 -0 3.328383 -22.88657 22.18699 -2.938373 -2.512782 4.644114 2.9316 11.55533 -8.276046 0.08998472 20.19378 9.805803 5.957675 -25.01252 8.17629 8.693061 -17.58871 14.10734 84.01345 36.68644 -19.08486 -0 0 13.87245 -9.796447 6.746634 5.298511 8.461853 -22.37571 -1.313847 -94.40408 33.05437 17.71859 0 0 -17.69087 -11.5439 11.58325 14.95276
1.645782 102.8421 9.590648 -0.2864716 -1.900792 -0.2589784 4.163465 -28.30108 6.640381 -0 34.43059 -0 -4.841726 -8.658714 -4.362753 -5.655217 16.00065 -17.74769 -0 6.729527 -0 2.400968 -23.67403 21.16944 -3.026473 -1.507996 4.622578 3.161513 11.21856 -8.381878 0.1005628 19.79219 10.07925 6.171916 -25.08056 8.340448 8.227004 -17.31012 13.78904 84.61808 36.38707 -19.49589 -0 0 13.11191 -9.806741 7.008597 5.381485 8.517958 -22.47772 -1.665039 -94.0282 33.06086 17.05868 0 0 -18.65936 -11.13949 11.90031 15.16189
1.905074 102.101 12.34023 -0.2775912 -1.833504 -0.02577349 4.116728 -29.9788 5.896795 -0 27.08844 -0 -4.961123 -7.187564 -3.316038 -5.763474 17.61994 -17.04917 -0 6.868465 -0 1.393272 -24.49428 19.9149 -3.062443 -0.4440632 4.584002 3.395914 10.90727 -8.568741 0.1551225 19.38437 10.30069 6.315965 -25.19483 8.563127 7.729949 -17.02326 13.58745 85.27537 36.10057 -19.87474 -0 0 12.2851 -9.808604 7.285353 5.477832 8.50368 -22.49682 -2.17719 -93.74185 33.08684 16.46295 0 0 -19.48649 -10.79975 12.20933 15.39575
2.166801 101.1882 15.88102 -0.2545278 -1.699403 0.4511193 4.10124 -31.08445 5.253069 -0 20.44917 -0 -5.354734 -6.016456 -2.376796 -5.858231 19.43787 -16.23485 -0 7.533205 -0 0.1655624 -25.13493 18.37843 -3.075648 0.4748562 4.296904 3.627167 10.36709 -8.888837 0.212795 19.10603 10.49792 6.409887 -25.39091 8.838351 7.248352 -16.59219 13.18753 86.1251 35.77415 -20.50939 -0 0 11.34311 -9.809616 7.581733 5.604073 8.348446 -22.33776 -2.685561 -93.6468 33.04219 16.14246 0 0 -20.06889 -10.45948 12.44327 15.62443
2.347857 100.3764 19.62013 -0.2192139 -1.501831 1.161134 4.191869 -31.693 5.026551 -0 16.3916 -0 -6.135349 -4.991571 -1.526289 -5.765522 20.89595 -15.36156 -0 8.930295 -0 -1.404718 -25.26615 16.52606 -2.987756 1.20874 3.912521 3.793095 9.881636 -9.170007 0.2719024 19.02254 10.55442 6.383785 -25.5658 9.044298 6.960403 -16.29702 12.8553 86.88159 35.46066 -21.05573 -0 0 10.36588 -9.855352 7.886895 5.780244 8.016592 -22.32565 -3.118559 -93.54424 32.96218 16.00018 0 0 -20.22891 -10.14085 12.5969 15.89264
2.432945 99.72788 23.93226 -0.1751313 -1.249129 2.072285 4.410985 -31.26583 4.857335 -0 15.60664 -0 -7.167872 -4.278928 -1.244254 -5.507908 21.9463 -14.42121 -0 11.54488 -0 -3.384968 -24.41679 14.42409 -2.766541 1.498802 3.457072 3.868452 9.566301 -9.416939 0.3285646 19.16818 10.48493 6.255317 -25.76564 9.195442 6.679918 -15.93857 12.37125 87.66086 35.10933 -21.70653 -0 0 9.361956 -9.982999 8.189408 6.027568 7.608734 -22.19473 -3.253696 -93.62634 32.7839 16.28 0 0 -19.98604 -9.83932 12.65615 16.19112
2.508333 99.46697 28.91459 -0.1304067 -0.9756496 3.058237 4.512613 -29.83785 4.778442 -0 17.44716 -0 -8.372071 -3.915669 -1.37518 -5.111045 22.29994 -13.47917 -0 15.68344 -0 -5.722993 -22.04284 12.26754 -2.389394 1.50071 2.873456 3.96969 9.412075 -9.77406 0.351419 19.52234 10.32759 5.99725 -25.98924 9.332209 6.372942 -15.70888 11.7845 88.2515 34.76814 -22.20752 -0 0 8.483712 -10.2783 8.485019 6.419632 7.241797 -21.91395 -3.282793 -93.89778 32.48754 16.98032 0 0 -19.45979 -9.573123 12.61168 16.49317
